<svg width="1920" height="1080" viewBox="0 0 1920 1080" fill="none" xmlns="http://www.w3.org/2000/svg">
<path d="M750.029 293.972C750.404 293.034 750.78 292.189 750.967 291.345C751.155 290.406 750.967 289.374 750.967 288.435C750.967 277.55 750.967 266.758 750.967 255.872C750.967 255.027 750.967 254.089 750.967 253.244C751.155 250.992 751.718 250.523 753.876 250.898C754.627 251.086 755.378 251.273 756.129 251.555C760.07 252.869 764.012 254.182 767.953 255.59C772.364 257.092 776.681 258.687 781.091 260.188C782.686 260.752 783.437 261.784 783.437 263.473C783.437 264.411 783.437 265.444 783.437 266.382C783.437 329.07 783.437 391.851 783.437 454.539C783.437 455.946 783.25 457.354 783.156 459.325C782.311 458.574 781.748 458.293 781.56 457.823C778.464 450.879 775.461 443.841 772.364 436.802C770.581 432.767 768.704 428.732 766.921 424.603C764.762 419.629 762.604 414.655 760.446 409.682C757.818 403.863 755.096 398.045 752.563 392.227C751.249 389.224 750.592 385.939 749.372 382.936C747.401 378.15 745.149 373.364 743.084 368.578C742.146 366.42 741.301 364.261 740.457 362.197C735.858 351.498 731.26 340.894 726.756 330.196C723.283 322.219 719.905 314.149 716.527 306.172C713.805 299.79 710.896 293.409 708.175 287.028C705.453 280.74 702.919 274.359 700.198 267.977C697.664 262.065 694.943 256.153 692.409 250.147C690.25 245.173 688.28 240.106 686.121 235.132C685.371 233.443 684.62 231.754 683.869 230.065C681.898 225.654 679.928 221.243 677.957 216.833C675.986 212.234 674.109 207.542 672.232 202.85C672.139 202.568 672.045 202.287 671.951 202.005C669.323 196.093 666.602 190.181 664.068 184.269C662.942 181.829 662.097 179.201 660.971 176.761C658.907 172.069 656.842 167.377 654.778 162.685C653.745 160.339 652.901 157.993 651.962 155.74C650.461 152.174 648.959 148.608 647.458 145.042C647.27 144.573 647.082 144.104 646.988 143.635C646.707 142.227 647.27 141.57 648.678 141.664C649.053 141.664 649.428 141.758 649.804 141.945C653.088 142.978 656.467 144.104 659.751 145.136C663.505 146.262 667.165 147.201 670.919 148.327C677.863 150.391 684.807 152.55 691.752 154.52C698.696 156.585 705.735 158.462 712.679 160.433C715.213 161.183 717.653 162.028 720.187 162.685C725.63 164.28 731.166 165.688 736.703 167.377C743.366 169.348 750.029 171.506 756.692 173.477C760.352 174.603 764.012 175.448 767.672 176.48C770.862 177.324 773.959 178.357 777.15 179.295C783.437 181.172 789.725 183.143 796.012 185.02C801.549 186.709 807.086 188.586 812.717 189.899C818.159 191.119 823.227 193.184 828.576 194.592C835.239 196.375 841.808 198.252 848.471 200.035C849.597 200.316 850.629 200.879 851.755 201.255C857.761 203.038 863.767 204.821 869.867 206.604C876.624 208.574 883.381 210.639 890.231 212.61C893.985 213.736 897.645 214.768 901.399 215.8C907.686 217.583 913.88 219.179 920.168 220.962C923.827 221.994 927.3 223.308 930.96 224.34C934.901 225.56 938.936 226.499 942.972 227.719C946.913 228.845 950.761 229.971 954.608 231.285C958.737 232.692 962.679 232.692 966.808 231.285C971.219 229.877 975.723 228.657 980.134 227.343C983.418 226.405 986.609 225.466 989.893 224.528C996.275 222.557 1002.66 220.586 1009.04 218.71C1014.39 217.114 1019.83 215.519 1025.18 213.923C1030.25 212.422 1035.41 210.827 1040.48 209.419C1047.23 207.542 1054.08 205.665 1060.93 203.788C1063.09 203.225 1065.16 202.381 1067.31 201.724C1074.26 199.659 1081.2 197.501 1088.15 195.436C1091.71 194.404 1095.28 193.559 1098.75 192.527C1105.51 190.556 1112.27 188.398 1119.02 186.333C1122.59 185.301 1126.06 184.363 1129.63 183.33C1136.01 181.547 1142.3 179.858 1148.58 178.075C1153.74 176.574 1159 175.26 1164.16 173.477C1169.42 171.694 1174.67 170.38 1180.02 168.878C1183.96 167.846 1187.72 166.345 1191.66 165.219C1195.04 164.186 1198.6 163.342 1201.98 162.309C1208.92 160.245 1215.87 157.993 1222.81 156.022C1229.57 154.051 1236.42 152.268 1243.27 150.391C1245.62 149.734 1247.87 148.89 1250.22 148.233C1256.88 146.168 1263.54 144.198 1270.2 142.227C1271.42 141.851 1272.93 140.819 1274.05 142.039C1275.18 143.259 1274.05 144.573 1273.58 145.793C1271.42 150.954 1269.36 156.21 1267.2 161.371C1264.76 167.095 1262.13 172.632 1259.69 178.357C1257.54 183.33 1255.57 188.304 1253.41 193.278C1250.87 199.19 1248.25 205.008 1245.71 210.827C1243.55 215.8 1241.49 220.774 1239.42 225.748C1238.67 227.437 1237.83 229.126 1237.17 230.722C1234.36 237.291 1231.45 243.86 1228.63 250.429C1226.66 254.933 1224.97 259.532 1223 264.13C1220.37 270.23 1217.56 276.33 1214.93 282.429C1212.96 287.028 1211.08 291.72 1209.21 296.412C1207.61 300.26 1205.92 304.107 1204.23 307.861C1202.26 312.459 1200.2 317.058 1198.23 321.656C1195.97 326.817 1193.63 331.885 1191.47 337.046C1189.03 342.865 1186.59 348.683 1184.15 354.408C1181.52 360.601 1178.8 366.795 1176.08 373.082C1172.33 381.998 1168.57 390.913 1164.72 399.828C1162.28 405.459 1159.84 410.995 1157.4 416.626C1155.25 421.6 1153.18 426.573 1151.02 431.547C1148.3 437.835 1145.49 444.122 1142.76 450.41C1141.73 452.756 1140.79 455.008 1139.76 457.354C1139.48 457.917 1139.1 458.48 1138.54 459.419C1138.07 458.48 1137.7 458.011 1137.6 457.448C1137.51 456.697 1137.6 455.946 1137.6 455.102C1137.79 440.087 1137.98 425.072 1138.26 410.057C1138.35 401.142 1138.54 392.227 1138.73 383.311C1138.73 381.716 1139.29 380.121 1139.86 378.525C1140.98 375.053 1142.3 371.581 1143.52 368.109C1144.27 365.95 1145.02 363.698 1145.86 361.54C1147.83 356.097 1149.99 350.654 1151.87 345.211C1153.84 339.768 1155.62 334.231 1157.5 328.694C1158.06 326.911 1158.72 325.222 1159.38 323.533C1160.69 319.967 1162.1 316.495 1163.22 312.929C1164.07 310.301 1164.63 307.486 1164.82 304.67C1165.19 297.914 1165.29 291.157 1165.48 284.306C1165.76 271.544 1165.94 258.687 1166.23 245.924C1166.23 242.452 1166.6 238.98 1166.51 235.508C1166.51 233.068 1167.26 231.472 1169.23 230.158C1172.7 227.812 1176.08 225.466 1179.55 223.12C1181.43 221.9 1183.21 220.493 1184.99 219.273C1185.84 218.71 1186.78 218.146 1187.72 217.677C1190.16 216.551 1190.72 216.833 1190.91 219.648C1191.19 223.965 1191.38 228.375 1191.56 232.692C1191.56 233.255 1191.56 233.818 1191.56 234.475C1191.56 235.601 1191.66 236.915 1193.07 237.291C1194.1 237.666 1195.51 236.634 1196.16 235.132C1198.6 229.22 1200.95 223.308 1203.39 217.396C1205.45 212.422 1207.52 207.448 1209.77 202.475C1211.08 199.472 1210.14 197.876 1206.86 198.158C1205.36 198.345 1203.76 198.627 1202.26 199.096C1197.57 200.504 1192.78 201.911 1188.09 203.413C1185.93 204.07 1183.87 204.821 1181.71 205.478C1175.23 207.542 1168.76 209.513 1162.28 211.484C1155.53 213.454 1148.68 215.331 1141.92 217.302C1138.26 218.334 1134.79 219.648 1131.13 220.774C1127.75 221.806 1124.28 222.745 1120.81 223.777C1114.05 225.842 1107.29 227.906 1100.54 229.971C1096.88 231.097 1093.12 232.035 1089.37 233.161C1085.43 234.288 1081.58 235.414 1077.73 236.54C1073.23 237.854 1068.63 239.167 1064.12 240.575C1060.37 241.701 1056.62 243.015 1052.77 244.235C1050.05 245.08 1047.42 245.83 1044.7 246.581C1040.85 247.707 1037.1 248.74 1033.25 249.959C1026.77 251.93 1020.3 253.901 1013.82 255.872C1010.35 256.904 1006.97 257.842 1003.5 258.875C997.589 260.564 991.489 262.065 985.67 264.13C978.257 266.758 979.195 266.57 979.195 272.764C979.195 378.901 979.195 485.038 979.195 591.269C979.195 595.586 978.445 599.058 974.972 601.967C971.031 605.346 967.559 609.381 963.899 613.041C961.271 615.669 960.239 615.575 957.705 612.853C953.482 608.443 949.353 604.032 945.036 599.621C943.535 598.12 942.784 596.524 942.972 594.46C942.972 593.615 942.972 592.677 942.972 591.832C942.972 486.07 942.972 380.308 942.972 274.547C942.972 272.857 942.878 271.262 942.878 269.573C942.878 267.321 941.752 265.913 939.687 265.256C938.655 264.881 937.716 264.505 936.684 264.13C930.584 262.347 924.391 260.564 918.291 258.687C912.003 256.81 905.716 254.746 899.428 252.869C895.956 251.836 892.578 250.898 889.105 249.959C885.07 248.833 881.129 247.613 877.187 246.487C869.867 244.329 862.548 242.264 855.228 240.106C851.849 239.167 848.565 238.041 845.28 237.009C838.148 234.944 831.016 232.88 823.884 230.722C821.444 229.971 819.098 229.126 816.752 228.375C810.558 226.499 804.364 224.528 798.171 222.745C791.226 220.68 784.188 218.803 777.244 216.739C775.179 216.176 773.208 215.331 771.144 214.768C764.199 212.61 757.255 210.451 750.31 208.387C746.838 207.354 743.272 206.416 739.706 205.29C733.043 203.319 726.38 201.161 719.717 199.19C717.934 198.627 716.151 198.345 714.274 198.158C712.304 198.064 711.459 199.096 711.741 201.067C711.741 201.536 711.928 202.005 712.116 202.475C714.837 209.137 717.653 215.894 720.374 222.557C723.002 229.032 725.348 235.508 727.976 241.983C730.04 247.144 732.199 252.118 734.263 257.279C736.797 263.755 739.331 270.23 741.864 276.705C743.554 280.928 745.149 285.151 746.838 289.374C747.495 291.063 748.621 292.565 750.78 293.503L750.029 293.972Z" fill="#E62129"/>
<path d="M808.142 515.35C809.55 516.476 811.145 517.415 812.459 518.635C817.808 523.702 823.064 528.77 828.413 533.838C834.043 539.187 839.674 544.442 845.304 549.791C852.624 556.642 859.85 563.398 867.17 570.249C880.121 582.355 892.977 594.554 905.928 606.66C909.869 610.414 913.717 614.168 917.658 617.922C919.441 619.611 920.379 621.581 920.943 623.928C921.881 627.869 923.289 631.717 924.415 635.658C925.447 639.224 926.385 642.696 927.418 646.262C928.825 651.048 930.233 655.928 931.641 660.714C933.611 667.471 935.394 674.322 937.365 681.078C938.304 684.269 939.336 687.366 940.181 690.557C942.339 698.158 944.497 705.853 946.656 713.454C947.406 716.176 948.251 718.804 949.002 721.525C950.691 728.188 952.286 734.851 953.882 741.608C955.383 747.989 956.697 754.464 958.105 760.939C958.292 761.878 958.48 762.91 958.949 763.661C959.7 764.975 961.201 764.881 961.952 763.567C962.14 763.192 962.328 762.629 962.421 762.159C963.36 757.467 964.204 752.869 965.237 748.177C966.175 743.954 967.207 739.731 968.24 735.414C969.366 730.816 970.492 726.217 971.712 721.619C973.026 716.739 974.433 711.953 975.747 707.073C976.967 702.85 978.093 698.721 979.313 694.498C980.439 690.65 981.659 686.897 982.786 683.143C983.63 680.421 984.287 677.7 985.038 675.072C987.009 668.222 988.885 661.277 990.856 654.427C991.607 651.799 992.451 649.265 993.202 646.638C994.985 640.538 996.862 634.438 998.645 628.244C999.114 626.649 999.584 625.054 999.865 623.458C1000.24 621.394 1001.18 619.611 1002.68 618.203C1013 608.537 1023.33 598.777 1033.56 589.112C1040.03 583.012 1046.51 576.818 1052.98 570.718C1063.02 561.24 1073.16 551.762 1083.29 542.19C1091.55 534.401 1099.81 526.612 1108.07 518.916C1109.38 517.696 1110.88 516.664 1112.2 515.632C1113.79 516.476 1113.42 517.509 1113.04 518.353C1111.35 523.139 1109.47 528.019 1107.79 532.805C1105.81 538.248 1103.94 543.785 1101.97 549.228C1101.22 551.199 1100.47 553.263 1099.71 555.234C1097.65 560.583 1095.68 565.932 1093.61 571.281C1092.77 573.44 1092.11 575.692 1091.36 577.85C1089.49 583.199 1087.61 588.642 1085.64 593.991C1083.67 599.34 1081.6 604.69 1079.54 610.039C1078.79 612.103 1078.04 614.262 1077.29 616.326C1075.41 621.675 1073.53 627.118 1071.66 632.467C1071 634.344 1070.15 636.221 1069.5 638.192C1067.53 643.541 1065.46 648.89 1063.49 654.239C1061.52 659.682 1059.64 665.219 1057.67 670.662C1057.2 672.069 1056.55 673.383 1056.08 674.697C1053.83 680.797 1051.48 686.803 1049.32 692.903C1046.69 700.222 1044.16 707.542 1041.53 714.768C1038.81 722.37 1035.99 729.877 1033.27 737.385C1031.3 742.828 1029.43 748.364 1027.46 753.807C1024.83 761.033 1022.01 768.259 1019.38 775.579C1017.32 781.21 1015.44 786.934 1013.38 792.565C1012.53 794.911 1011.69 797.257 1010.66 799.603C1009.72 801.761 1008.22 803.075 1005.68 802.981C1004.84 802.981 1003.9 802.981 1003.06 802.981C974.433 802.981 945.811 802.981 917.283 802.981C911.277 802.981 910.901 802.606 908.931 797.069C906.96 791.626 904.801 786.183 902.737 780.74C900.766 775.391 898.983 769.948 897.106 764.599C895.98 761.409 894.666 758.312 893.446 755.121C892.602 752.963 891.945 750.71 891.194 748.552C889.411 743.484 887.628 738.323 885.751 733.255C884.719 730.44 883.593 727.625 882.56 724.809C880.402 718.803 878.337 712.798 876.179 706.792C875.428 704.727 874.584 702.662 873.833 700.504C870.267 691.026 866.701 681.454 863.229 671.976C860.507 664.656 858.067 657.148 855.346 649.828C853.375 644.479 851.31 639.13 849.246 633.875C848.401 631.623 847.651 629.277 846.9 627.024C843.803 618.578 840.706 610.132 837.609 601.687C835.639 596.244 833.856 590.707 831.885 585.264C829.257 578.132 826.442 571 823.908 563.774C821.937 558.331 820.061 552.794 818.09 547.351C817.527 545.85 816.964 544.442 816.401 543.034C814.148 537.122 811.896 531.304 809.738 525.392C808.799 522.952 808.049 520.418 807.298 517.978C807.11 517.321 807.298 516.57 807.298 515.82C807.485 515.726 807.767 515.632 807.955 515.444L808.142 515.35Z" fill="black"/>
<path d="M994.436 591.079C994.154 589.577 993.873 588.92 993.873 588.17C993.873 587.043 993.873 585.824 993.873 584.697C993.873 493.2 993.873 401.702 993.873 310.204C993.873 308.985 993.873 307.671 993.873 306.451C994.06 304.198 994.905 303.166 997.157 302.509C1001.76 301.102 1006.35 299.6 1011.05 298.286C1014.52 297.254 1017.99 296.409 1021.37 295.377C1028.03 293.406 1034.69 291.248 1041.36 289.183C1043.99 288.433 1046.61 287.682 1049.15 286.931C1053.46 285.711 1057.69 284.491 1062 283.271C1062.66 283.084 1063.32 282.99 1063.97 282.896C1065.01 282.802 1065.66 283.271 1065.76 284.397C1065.85 285.617 1065.85 286.931 1065.85 288.151C1065.85 346.428 1065.85 404.705 1065.85 462.888C1065.85 482.783 1065.85 502.678 1065.85 522.479C1065.85 525.764 1064.91 528.203 1062.47 530.362C1054.87 537.025 1047.46 543.781 1039.95 550.538C1035.82 554.198 1031.79 557.952 1027.66 561.612C1022.31 566.398 1016.96 571.184 1011.7 575.97C1007.1 580.099 1002.51 584.322 997.908 588.451C996.969 589.296 995.937 589.859 994.436 590.985V591.079ZM1035.73 415.685C1035.73 415.685 1035.73 415.685 1035.63 415.685C1035.45 402.734 1035.26 389.69 1035.16 376.74C1035.07 361.631 1035.07 346.522 1034.98 331.413C1034.98 330.193 1034.98 328.879 1034.88 327.659C1034.6 325.407 1033.1 324.469 1030.94 325.407C1030 325.783 1029.06 326.439 1028.13 326.909C1024.37 328.786 1022.49 331.319 1022.59 336.012C1023.06 360.505 1023.06 384.998 1023.25 409.585C1023.43 427.603 1023.62 445.621 1023.81 463.639C1024 486.255 1024.28 508.778 1024.47 531.394C1024.47 532.239 1024.47 533.177 1024.65 534.022C1025.12 536.274 1026.62 536.837 1028.5 535.429C1030.1 534.209 1031.6 532.708 1033.19 531.488C1035.16 529.893 1036.1 527.922 1036.1 525.482C1036.1 524.544 1036.1 523.511 1036.1 522.573C1036.01 515.065 1035.73 507.464 1035.73 499.956C1035.73 471.991 1035.73 443.932 1035.73 415.966V415.685Z" fill="#E62129"/>
<path d="M924.71 591.369C923.396 590.242 922.458 589.586 921.613 588.647C917.672 584.33 913.824 580.014 909.976 575.697C904.627 569.691 899.184 563.779 893.741 557.866C888.111 551.673 882.574 545.479 876.943 539.379C874.034 536.189 871.031 532.904 868.028 529.807C866.245 527.93 865.307 525.866 865.588 523.238C865.588 522.769 865.588 522.3 865.588 521.83C865.588 444.879 865.588 367.927 865.588 290.975C865.588 289.661 865.588 288.253 865.682 286.94C865.776 285.626 866.433 284.969 867.841 285.438C869.06 285.813 870.28 286.001 871.5 286.376C877.788 288.347 884.075 290.318 890.363 292.195C894.117 293.321 897.871 294.259 901.53 295.385C908.569 297.544 915.607 299.702 922.645 301.955C924.71 302.611 925.085 303.081 925.085 305.333C925.085 316.219 925.085 327.011 925.085 337.897C925.085 340.524 924.241 340.9 921.801 339.774C915.607 336.677 909.319 333.58 903.126 330.483C900.404 329.169 899.09 329.92 898.809 332.923C898.809 333.861 898.809 334.894 898.809 335.832C898.809 397.675 898.809 459.518 898.809 521.361C898.809 525.396 900.029 528.306 902.75 531.121C909.695 538.441 916.452 545.948 923.302 553.268C924.522 554.582 925.273 556.083 925.273 557.96C925.273 568.189 925.273 578.512 925.273 588.741C925.273 589.492 925.085 590.149 924.804 591.556L924.71 591.369Z" fill="#E62129"/>
<path d="M1083.12 517.79C1082.74 516.195 1082.46 515.256 1082.37 514.318C1082.27 513.192 1082.37 511.972 1082.37 510.845C1082.37 435.114 1082.37 359.382 1082.37 283.65C1082.37 282.242 1082.37 280.741 1082.55 279.333C1082.55 277.831 1083.4 276.799 1084.9 276.33C1088.65 275.11 1092.41 273.796 1096.26 272.67C1100.01 271.544 1103.86 270.512 1107.7 269.292C1114.37 267.227 1121.03 265.163 1127.69 263.192C1134.45 261.127 1141.21 259.25 1148.06 257.28C1150.22 256.623 1150.78 257.092 1150.97 259.438C1150.97 260.001 1150.97 260.564 1150.97 261.221C1151.15 276.236 1151.25 291.251 1151.44 306.266C1151.44 307.017 1151.44 307.861 1151.44 308.612C1151.44 310.395 1150.59 311.709 1149 312.648C1144.87 314.994 1140.74 317.34 1136.61 319.686C1135.11 320.53 1133.51 321.281 1132.01 322.126C1129.48 323.533 1129.29 325.879 1131.63 327.663C1135.48 330.572 1139.33 333.481 1143.18 336.39C1145.15 337.891 1145.24 338.173 1144.4 340.613C1141.96 347.088 1139.42 353.563 1136.89 360.039C1136.14 362.009 1135.29 362.197 1133.61 361.071C1131.82 359.945 1130.13 358.631 1128.44 357.317C1125.63 355.253 1122.91 353.094 1120 351.123C1117.65 349.528 1116.15 350.279 1115.96 353.188C1115.87 354.596 1115.96 356.097 1115.96 357.505C1115.96 397.576 1115.96 437.554 1115.96 477.625C1115.96 481.097 1114.93 483.631 1112.58 486.165C1104.61 494.704 1096.72 503.432 1088.84 512.065C1087.81 513.192 1086.87 514.412 1085.84 515.538C1085.28 516.101 1084.53 516.57 1083.21 517.508L1083.12 517.79ZM1130.23 293.691C1130.13 290.97 1129.95 286.653 1129.76 282.336C1129.76 281.491 1129.57 280.553 1129.29 279.802C1128.63 278.019 1127.13 277.55 1125.54 278.395C1123.38 279.615 1121.22 281.022 1118.97 282.054C1116.71 283.087 1115.87 284.776 1115.87 287.122C1115.87 292.377 1115.87 297.539 1115.87 302.794C1115.87 303.357 1115.87 303.92 1116.06 304.483C1116.34 305.797 1117.28 306.454 1118.59 306.266C1119.44 306.078 1120.28 305.797 1121.03 305.328C1122.63 304.483 1124.13 303.263 1125.82 302.606C1129.19 301.292 1130.51 298.852 1130.23 293.691Z" fill="#E62129"/>
<path d="M847.592 515.072C846.466 514.322 845.903 514.04 845.528 513.665C839.522 507.096 833.61 500.433 827.604 493.864C826.008 492.081 824.319 490.298 822.63 488.515C820.472 486.168 818.313 483.822 816.061 481.476C815.029 480.35 814.372 479.13 814.466 477.535C814.466 476.784 814.466 475.94 814.466 475.189C814.466 408.278 814.466 341.461 814.466 274.551C814.466 273.612 814.466 272.58 814.466 271.642C814.653 269.859 815.31 269.296 817.187 269.577C817.469 269.577 817.75 269.577 818.032 269.765C826.853 272.58 835.768 275.302 844.589 278.211C847.499 279.149 847.592 279.431 847.592 282.34C847.592 282.997 847.592 283.654 847.592 284.404C847.592 359.292 847.592 434.273 847.592 509.16C847.592 510.849 847.499 512.539 847.405 514.979L847.592 515.072Z" fill="#E62129"/>
<path d="M959.628 191.686C993.783 191.686 1021.47 163.998 1021.47 129.843C1021.47 95.6881 993.783 68 959.628 68C925.473 68 897.785 95.6881 897.785 129.843C897.785 163.998 925.473 191.686 959.628 191.686Z" fill="#70BD4C"/>
<path d="M263.465 982V904.926H288.741C294.427 904.926 299.523 905.689 304.031 907.214C308.607 908.74 312.213 911.271 314.848 914.807C317.552 918.274 318.904 923.059 318.904 929.161C318.904 934.986 317.552 939.805 314.848 943.619C312.213 947.363 308.642 950.137 304.135 951.94C299.697 953.743 294.704 954.644 289.157 954.644H278.859V982H263.465ZM278.859 942.475H288.116C293.386 942.475 297.304 941.365 299.87 939.146C302.505 936.927 303.822 933.599 303.822 929.161C303.822 924.723 302.436 921.637 299.662 919.904C296.958 918.101 292.936 917.2 287.596 917.2H278.859V942.475ZM345.49 982V917.824H323.856V904.926H382.623V917.824H360.884V982H345.49ZM388.782 983.456C386.008 983.456 383.72 982.485 381.917 980.544C380.114 978.602 379.213 976.245 379.213 973.471C379.213 970.559 380.114 968.166 381.917 966.294C383.72 964.422 386.008 963.486 388.782 963.486C391.486 963.486 393.74 964.422 395.543 966.294C397.346 968.166 398.247 970.559 398.247 973.471C398.247 976.245 397.346 978.602 395.543 980.544C393.74 982.485 391.486 983.456 388.782 983.456ZM452.205 982L428.698 904.926H444.924L455.013 942.475C456.262 946.705 457.336 950.831 458.238 954.852C459.209 958.805 460.283 962.966 461.462 967.334H461.982C463.23 962.966 464.34 958.805 465.311 954.852C466.282 950.831 467.356 946.705 468.535 942.475L478.52 904.926H494.123L470.615 982H452.205ZM503.082 982V904.926H518.476V982H503.082ZM568.723 983.456C563.869 983.456 559.327 982.624 555.097 980.96C550.867 979.226 547.123 976.661 543.864 973.263C540.674 969.865 538.143 965.705 536.271 960.781C534.468 955.858 533.566 950.207 533.566 943.827C533.566 937.448 534.502 931.796 536.375 926.873C538.247 921.88 540.813 917.65 544.072 914.183C547.4 910.716 551.214 908.081 555.513 906.278C559.882 904.475 564.493 903.574 569.347 903.574C574.27 903.574 578.639 904.579 582.453 906.59C586.336 908.532 589.491 910.82 591.918 913.455L583.909 923.232C581.967 921.291 579.818 919.731 577.46 918.552C575.172 917.373 572.571 916.784 569.659 916.784C565.776 916.784 562.274 917.858 559.154 920.008C556.103 922.088 553.71 925.105 551.977 929.057C550.243 933.01 549.376 937.76 549.376 943.307C549.376 948.924 550.174 953.743 551.769 957.765C553.433 961.717 555.756 964.768 558.738 966.918C561.789 969.068 565.325 970.142 569.347 970.142C572.675 970.142 575.623 969.449 578.188 968.062C580.823 966.606 583.146 964.768 585.157 962.549L593.374 972.119C590.184 975.863 586.544 978.706 582.453 980.648C578.362 982.52 573.785 983.456 568.723 983.456ZM618.729 982V917.824H597.094V904.926H655.862V917.824H634.123V982H618.729ZM695.269 983.456C688.474 983.456 682.476 981.861 677.275 978.672C672.144 975.412 668.122 970.767 665.209 964.734C662.297 958.701 660.841 951.489 660.841 943.099C660.841 934.778 662.297 927.67 665.209 921.776C668.122 915.882 672.144 911.375 677.275 908.254C682.476 905.134 688.474 903.574 695.269 903.574C702.134 903.574 708.132 905.169 713.264 908.358C718.395 911.479 722.417 915.986 725.329 921.88C728.241 927.705 729.698 934.778 729.698 943.099C729.698 951.489 728.241 958.701 725.329 964.734C722.417 970.767 718.395 975.412 713.264 978.672C708.132 981.861 702.134 983.456 695.269 983.456ZM695.269 970.142C699.083 970.142 702.377 969.033 705.15 966.814C707.994 964.595 710.178 961.475 711.703 957.453C713.229 953.362 713.992 948.577 713.992 943.099C713.992 937.621 713.229 932.94 711.703 929.057C710.178 925.105 707.994 922.088 705.15 920.008C702.377 917.858 699.083 916.784 695.269 916.784C691.455 916.784 688.127 917.858 685.284 920.008C682.51 922.088 680.361 925.105 678.835 929.057C677.379 932.94 676.651 937.621 676.651 943.099C676.651 948.577 677.379 953.362 678.835 957.453C680.361 961.475 682.51 964.595 685.284 966.814C688.127 969.033 691.455 970.142 695.269 970.142ZM744.731 982V904.926H771.462C776.94 904.926 781.864 905.654 786.232 907.11C790.601 908.497 794.068 910.924 796.634 914.391C799.199 917.789 800.482 922.435 800.482 928.329C800.482 934.015 799.199 938.696 796.634 942.371C794.068 945.977 790.601 948.646 786.232 950.38C781.864 952.044 776.94 952.876 771.462 952.876H760.125V982H744.731ZM760.125 940.707H770.11C775.103 940.707 778.882 939.666 781.448 937.586C784.083 935.506 785.4 932.42 785.4 928.329C785.4 924.168 784.083 921.291 781.448 919.696C778.882 918.032 775.103 917.2 770.11 917.2H760.125V940.707ZM786.544 982L768.654 948.924L779.471 939.354L803.811 982H786.544ZM815.631 982V904.926H831.025V982H815.631ZM849.963 982V904.926H865.669L888.032 946.011L895.833 962.653H896.353C895.937 958.632 895.487 954.228 895.001 949.444C894.516 944.659 894.273 940.083 894.273 935.714V904.926H908.835V982H893.129L870.974 940.811L863.173 924.273H862.653C863 928.433 863.416 932.836 863.901 937.482C864.386 942.128 864.629 946.67 864.629 951.108V982H849.963ZM927.872 982V904.926H948.987C956.892 904.926 963.652 906.313 969.269 909.087C974.955 911.86 979.324 916.055 982.375 921.672C985.495 927.289 987.056 934.431 987.056 943.099C987.056 951.767 985.53 958.978 982.479 964.734C979.428 970.489 975.129 974.823 969.581 977.735C964.034 980.578 957.446 982 949.819 982H927.872ZM943.266 969.518H947.946C952.8 969.518 956.961 968.652 960.428 966.918C963.965 965.115 966.669 962.272 968.541 958.389C970.413 954.436 971.349 949.34 971.349 943.099C971.349 936.858 970.413 931.865 968.541 928.121C966.669 924.307 963.965 921.568 960.428 919.904C956.961 918.17 952.8 917.304 947.946 917.304H943.266V969.518ZM1032.7 983.456C1025.91 983.456 1019.91 981.861 1014.71 978.672C1009.58 975.412 1005.56 970.767 1002.64 964.734C999.731 958.701 998.275 951.489 998.275 943.099C998.275 934.778 999.731 927.67 1002.64 921.776C1005.56 915.882 1009.58 911.375 1014.71 908.254C1019.91 905.134 1025.91 903.574 1032.7 903.574C1039.57 903.574 1045.57 905.169 1050.7 908.358C1055.83 911.479 1059.85 915.986 1062.76 921.88C1065.68 927.705 1067.13 934.778 1067.13 943.099C1067.13 951.489 1065.68 958.701 1062.76 964.734C1059.85 970.767 1055.83 975.412 1050.7 978.672C1045.57 981.861 1039.57 983.456 1032.7 983.456ZM1032.7 970.142C1036.52 970.142 1039.81 969.033 1042.58 966.814C1045.43 964.595 1047.61 961.475 1049.14 957.453C1050.66 953.362 1051.43 948.577 1051.43 943.099C1051.43 937.621 1050.66 932.94 1049.14 929.057C1047.61 925.105 1045.43 922.088 1042.58 920.008C1039.81 917.858 1036.52 916.784 1032.7 916.784C1028.89 916.784 1025.56 917.858 1022.72 920.008C1019.94 922.088 1017.8 925.105 1016.27 929.057C1014.81 932.94 1014.09 937.621 1014.09 943.099C1014.09 948.577 1014.81 953.362 1016.27 957.453C1017.8 961.475 1019.94 964.595 1022.72 966.814C1025.56 969.033 1028.89 970.142 1032.7 970.142ZM1105.73 982V904.926H1121.12V938.418H1121.44L1146.92 904.926H1163.87L1140.37 935.298L1168.04 982H1151.18L1131.21 947.364L1121.12 960.365V982H1105.73ZM1177.04 982V904.926H1192.43V982H1177.04ZM1211.37 982V904.926H1228.43L1241.53 941.123C1242.37 943.411 1243.16 945.838 1243.93 948.404C1244.69 950.9 1245.45 953.362 1246.21 955.789H1246.73C1247.57 953.362 1248.36 950.9 1249.13 948.404C1249.89 945.838 1250.62 943.411 1251.31 941.123L1264.21 904.926H1281.27V982H1267.22V949.86C1267.22 947.363 1267.33 944.624 1267.54 941.643C1267.74 938.661 1267.99 935.679 1268.26 932.698C1268.61 929.647 1268.92 926.942 1269.2 924.585H1268.79L1262.44 942.683L1250.58 975.031H1241.74L1229.78 942.683L1223.64 924.585H1223.23C1223.5 926.942 1223.78 929.647 1224.06 932.698C1224.34 935.679 1224.58 938.661 1224.79 941.643C1225.06 944.624 1225.2 947.363 1225.2 949.86V982H1211.37ZM1300.05 982V904.926H1315.44V982H1300.05ZM1324.5 982L1349.15 904.926H1367.35L1392 982H1375.78L1364.85 941.851C1363.67 937.829 1362.53 933.668 1361.42 929.369C1360.38 925.001 1359.27 920.771 1358.09 916.68H1357.68C1356.71 920.84 1355.63 925.07 1354.45 929.369C1353.34 933.668 1352.23 937.829 1351.12 941.851L1340.1 982H1324.5ZM1339.79 962.237V950.276H1376.4V962.237H1339.79ZM1407.77 982V917.824H1386.13V904.926H1444.9V917.824H1423.16V982H1407.77ZM1442.32 982L1466.98 904.926H1485.18L1509.83 982H1493.6L1482.68 941.851C1481.5 937.829 1480.36 933.668 1479.25 929.369C1478.21 925.001 1477.1 920.771 1475.92 916.68H1475.5C1474.53 920.84 1473.46 925.07 1472.28 929.369C1471.17 933.668 1470.06 937.829 1468.95 941.851L1457.93 982H1442.32ZM1457.61 962.237V950.276H1494.23V962.237H1457.61ZM1518.84 982V904.926H1535.9L1549 941.123C1549.84 943.411 1550.63 945.838 1551.4 948.404C1552.16 950.9 1552.92 953.362 1553.68 955.789H1554.2C1555.04 953.362 1555.83 950.9 1556.6 948.404C1557.36 945.838 1558.09 943.411 1558.78 941.123L1571.68 904.926H1588.74V982H1574.69V949.86C1574.69 947.363 1574.8 944.624 1575.01 941.643C1575.21 938.661 1575.46 935.679 1575.73 932.698C1576.08 929.647 1576.39 926.942 1576.67 924.585H1576.25L1569.91 942.683L1558.05 975.031H1549.21L1537.25 942.683L1531.11 924.585H1530.7C1530.97 926.942 1531.25 929.647 1531.53 932.698C1531.81 935.679 1532.05 938.661 1532.26 941.643C1532.53 944.624 1532.67 947.363 1532.67 949.86V982H1518.84ZM1597.63 982L1622.28 904.926H1640.49L1665.14 982H1648.91L1637.99 941.851C1636.81 937.829 1635.67 933.668 1634.56 929.369C1633.52 925.001 1632.41 920.771 1631.23 916.68H1630.81C1629.84 920.84 1628.77 925.07 1627.59 929.369C1626.48 933.668 1625.37 937.829 1624.26 941.851L1613.24 982H1597.63ZM1612.92 962.237V950.276H1649.54V962.237H1612.92Z" fill="white"/>
</svg>
