<svg width="1080" height="1080" viewBox="0 0 1080 1080" fill="none" xmlns="http://www.w3.org/2000/svg">
<path d="M280.196 365.858C280.659 364.7 281.122 363.658 281.354 362.615C281.586 361.457 281.354 360.183 281.354 359.025C281.354 345.592 281.354 332.274 281.354 318.841C281.354 317.798 281.354 316.64 281.354 315.598C281.586 312.819 282.28 312.24 284.944 312.703C285.87 312.934 286.797 313.166 287.723 313.513C292.587 315.135 297.451 316.756 302.315 318.493C307.758 320.346 313.085 322.315 318.528 324.168C320.497 324.862 321.423 326.136 321.423 328.221C321.423 329.379 321.423 330.653 321.423 331.811C321.423 409.17 321.423 486.644 321.423 564.003C321.423 565.74 321.191 567.477 321.076 569.909C320.033 568.983 319.339 568.635 319.107 568.056C315.285 559.487 311.58 550.801 307.758 542.116C305.558 537.136 303.241 532.156 301.041 527.061C298.378 520.923 295.714 514.785 293.05 508.648C289.808 501.468 286.45 494.288 283.323 487.108C281.701 483.402 280.891 479.348 279.385 475.643C276.953 469.737 274.174 463.83 271.626 457.924C270.468 455.261 269.426 452.597 268.384 450.049C262.709 436.847 257.035 423.761 251.476 410.559C247.191 400.716 243.022 390.756 238.853 380.913C235.495 373.038 231.905 365.163 228.546 357.288C225.188 349.529 222.061 341.654 218.703 333.78C215.576 326.484 212.217 319.188 209.091 311.776C206.427 305.639 203.995 299.385 201.332 293.247C200.405 291.163 199.479 289.078 198.552 286.994C196.12 281.551 193.688 276.108 191.256 270.665C188.825 264.99 186.508 259.2 184.192 253.41C184.076 253.062 183.961 252.715 183.845 252.368C180.602 245.072 177.244 237.776 174.117 230.48C172.727 227.469 171.685 224.226 170.295 221.216C167.748 215.425 165.2 209.635 162.652 203.845C161.378 200.949 160.336 198.054 159.178 195.275C157.325 190.874 155.472 186.474 153.619 182.073C153.388 181.494 153.156 180.915 153.04 180.336C152.693 178.599 153.388 177.788 155.125 177.904C155.588 177.904 156.051 178.02 156.514 178.251C160.568 179.525 164.737 180.915 168.79 182.189C173.422 183.578 177.939 184.736 182.571 186.126C191.141 188.674 199.71 191.337 208.28 193.769C216.85 196.317 225.535 198.633 234.105 201.065C237.232 201.992 240.243 203.034 243.369 203.845C250.086 205.813 256.919 207.55 263.751 209.635C271.974 212.067 280.196 214.73 288.418 217.162C292.935 218.552 297.451 219.594 301.968 220.868C305.905 221.91 309.727 223.184 313.664 224.342C321.423 226.658 329.182 229.09 336.941 231.407C343.774 233.491 350.606 235.807 357.555 237.428C364.272 238.934 370.525 241.482 377.126 243.219C385.348 245.419 393.455 247.735 401.677 249.936C403.067 250.283 404.341 250.978 405.73 251.441C413.142 253.641 420.554 255.842 428.081 258.042C436.419 260.474 444.757 263.022 453.211 265.454C457.843 266.843 462.36 268.117 466.992 269.391C474.751 271.591 482.394 273.56 490.153 275.76C494.67 277.034 498.955 278.656 503.471 279.929C508.335 281.435 513.315 282.593 518.294 284.099C523.158 285.488 527.906 286.878 532.654 288.499C537.75 290.236 542.614 290.236 547.709 288.499C553.152 286.762 558.711 285.257 564.154 283.635C568.207 282.477 572.144 281.319 576.198 280.161C584.073 277.729 591.947 275.297 599.822 272.981C606.423 271.012 613.14 269.044 619.741 267.075C625.995 265.222 632.364 263.253 638.617 261.516C646.956 259.2 655.409 256.884 663.863 254.568C666.527 253.873 669.075 252.831 671.738 252.02C680.308 249.472 688.878 246.809 697.447 244.261C701.848 242.987 706.248 241.945 710.533 240.671C718.871 238.239 727.21 235.576 735.548 233.028C739.948 231.754 744.233 230.596 748.634 229.322C756.509 227.122 764.268 225.037 772.027 222.837C778.396 220.984 784.881 219.363 791.251 217.162C797.736 214.962 804.221 213.341 810.822 211.488C815.686 210.214 820.318 208.361 825.182 206.971C829.351 205.697 833.752 204.655 837.921 203.381C846.49 200.834 855.06 198.054 863.63 195.622C871.968 193.19 880.422 190.99 888.876 188.674C891.771 187.863 894.55 186.821 897.445 186.01C905.667 183.463 913.89 181.031 922.112 178.599C923.618 178.135 925.47 176.862 926.86 178.367C928.25 179.873 926.86 181.494 926.281 182.999C923.618 189.369 921.07 195.854 918.406 202.223C915.395 209.287 912.153 216.12 909.142 223.184C906.478 229.322 904.046 235.46 901.383 241.597C898.256 248.893 895.013 256.073 891.887 263.253C889.223 269.391 886.675 275.529 884.127 281.667C883.201 283.751 882.159 285.836 881.348 287.804C877.874 295.911 874.284 304.017 870.81 312.124C868.378 317.682 866.293 323.357 863.861 329.031C860.619 336.559 857.145 344.086 853.902 351.614C851.47 357.288 849.154 363.079 846.838 368.869C844.869 373.617 842.785 378.365 840.7 382.997C838.268 388.672 835.72 394.346 833.288 400.021C830.509 406.39 827.614 412.644 824.95 419.013C821.939 426.193 818.928 433.373 815.917 440.437C812.675 448.081 809.316 455.724 805.958 463.483C801.326 474.485 796.693 485.486 791.945 496.488C788.934 503.436 785.923 510.269 782.912 517.217C780.249 523.355 777.701 529.493 775.038 535.631C771.679 543.39 768.205 551.149 764.847 558.908C763.573 561.803 762.415 564.582 761.141 567.477C760.793 568.172 760.33 568.867 759.635 570.025C759.056 568.867 758.593 568.288 758.477 567.593C758.362 566.667 758.477 565.74 758.477 564.698C758.709 546.169 758.941 527.64 759.288 509.111C759.404 498.109 759.635 487.107 759.867 476.106C759.867 474.137 760.562 472.168 761.257 470.2C762.646 465.915 764.268 461.63 765.773 457.345C766.7 454.682 767.626 451.902 768.668 449.239C771.1 442.522 773.764 435.805 776.08 429.088C778.512 422.372 780.712 415.539 783.028 408.706C783.723 406.506 784.534 404.422 785.344 402.337C786.966 397.936 788.703 393.652 790.093 389.251C791.135 386.008 791.83 382.534 792.061 379.06C792.524 370.722 792.64 362.384 792.872 353.93C793.219 338.18 793.451 322.315 793.798 306.565C793.798 302.28 794.262 297.995 794.146 293.71C794.146 290.7 795.072 288.731 797.504 287.11C801.789 284.214 805.958 281.319 810.243 278.424C812.559 276.919 814.759 275.181 816.96 273.676C818.002 272.981 819.16 272.286 820.318 271.707C823.329 270.318 824.024 270.665 824.255 274.139C824.603 279.466 824.835 284.909 825.066 290.236C825.066 290.931 825.066 291.626 825.066 292.437C825.066 293.826 825.182 295.448 826.919 295.911C828.193 296.374 829.93 295.1 830.741 293.247C833.752 285.951 836.647 278.656 839.658 271.36C842.205 265.222 844.753 259.084 847.533 252.947C849.154 249.241 847.996 247.272 843.943 247.619C842.09 247.851 840.121 248.198 838.268 248.778C832.478 250.515 826.572 252.252 820.781 254.105C818.118 254.915 815.57 255.842 812.906 256.652C804.916 259.2 796.925 261.632 788.934 264.064C780.596 266.496 772.142 268.812 763.804 271.244C759.288 272.518 755.003 274.139 750.487 275.529C746.318 276.803 742.033 277.961 737.748 279.235C729.41 281.782 721.072 284.33 712.734 286.878C708.217 288.268 703.585 289.426 698.953 290.815C694.089 292.205 689.341 293.595 684.593 294.984C679.034 296.606 673.359 298.227 667.801 299.964C663.168 301.354 658.536 302.975 653.788 304.48C650.43 305.523 647.187 306.449 643.829 307.376C639.081 308.765 634.448 310.039 629.7 311.545C621.71 313.977 613.719 316.409 605.728 318.841C601.444 320.114 597.274 321.272 592.99 322.546C585.694 324.631 578.166 326.484 570.986 329.031C561.838 332.274 562.996 332.042 562.996 339.686C562.996 470.663 562.996 601.64 562.996 732.733C562.996 738.06 562.069 742.345 557.784 745.935C552.921 750.104 548.636 755.084 544.119 759.601C540.877 762.843 539.603 762.727 536.476 759.369C531.265 753.926 526.169 748.483 520.842 743.04C518.989 741.187 518.063 739.219 518.294 736.671C518.294 735.629 518.294 734.47 518.294 733.428C518.294 602.914 518.294 472.4 518.294 341.886C518.294 339.802 518.179 337.833 518.179 335.748C518.179 332.969 516.789 331.232 514.241 330.421C512.967 329.958 511.809 329.495 510.535 329.031C503.008 326.831 495.365 324.631 487.837 322.315C480.078 319.999 472.319 317.451 464.56 315.135C460.275 313.861 456.106 312.703 451.821 311.545C446.842 310.155 441.978 308.65 437.114 307.26C428.081 304.596 419.048 302.049 410.015 299.385C405.846 298.227 401.793 296.837 397.74 295.563C388.938 293.016 380.137 290.468 371.336 287.804C368.325 286.878 365.43 285.836 362.534 284.909C354.891 282.593 347.248 280.161 339.605 277.961C331.035 275.413 322.35 273.097 313.78 270.549C311.232 269.854 308.8 268.812 306.252 268.117C297.683 265.454 289.113 262.79 280.543 260.242C276.259 258.968 271.858 257.81 267.457 256.421C259.235 253.989 251.013 251.325 242.79 248.893C240.59 248.198 238.39 247.851 236.074 247.619C233.642 247.504 232.599 248.778 232.947 251.209C232.947 251.788 233.178 252.368 233.41 252.947C236.768 261.169 240.243 269.507 243.601 277.729C246.844 285.72 249.739 293.71 252.981 301.701C255.529 308.071 258.193 314.208 260.74 320.578C263.867 328.568 266.994 336.559 270.121 344.55C272.205 349.761 274.174 354.972 276.259 360.183C277.069 362.268 278.459 364.121 281.122 365.279L280.196 365.858Z" fill="#E62129"/>
<path d="M351.91 639.047C353.647 640.436 355.616 641.595 357.237 643.1C363.838 649.354 370.323 655.607 376.924 661.861C383.873 668.462 390.821 674.947 397.769 681.548C406.802 690.002 415.719 698.34 424.752 706.794C440.734 721.733 456.599 736.788 472.581 751.727C477.444 756.359 482.192 760.991 487.056 765.623C489.257 767.708 490.415 770.14 491.11 773.035C492.268 777.899 494.005 782.647 495.394 787.511C496.668 791.911 497.826 796.196 499.1 800.597C500.837 806.503 502.574 812.525 504.312 818.431C506.743 826.769 508.944 835.223 511.376 843.561C512.534 847.499 513.808 851.32 514.85 855.258C517.514 864.638 520.177 874.134 522.841 883.514C523.767 886.873 524.809 890.115 525.736 893.474C527.82 901.696 529.789 909.918 531.758 918.256C533.611 926.131 535.232 934.122 536.969 942.113C537.201 943.271 537.432 944.544 538.011 945.471C538.938 947.092 540.791 946.977 541.717 945.355C541.949 944.892 542.18 944.197 542.296 943.618C543.454 937.828 544.496 932.153 545.77 926.363C546.928 921.152 548.202 915.94 549.476 910.613C550.866 904.939 552.255 899.264 553.761 893.59C555.382 887.568 557.119 881.662 558.741 875.64C560.246 870.428 561.636 865.333 563.141 860.122C564.531 855.373 566.036 850.741 567.426 846.109C568.468 842.751 569.279 839.392 570.205 836.15C572.637 827.696 574.954 819.126 577.385 810.672C578.312 807.43 579.354 804.303 580.281 801.06C582.481 793.533 584.797 786.005 586.997 778.362C587.577 776.393 588.156 774.425 588.503 772.456C588.966 769.908 590.124 767.708 591.977 765.971C604.716 754.043 617.455 741.999 630.078 730.071C638.068 722.543 646.059 714.9 654.05 707.373C666.441 695.676 678.948 683.98 691.455 672.167C701.646 662.555 711.837 652.944 722.028 643.447C723.649 641.942 725.502 640.668 727.123 639.394C729.092 640.436 728.629 641.71 728.166 642.753C726.081 648.659 723.765 654.681 721.681 660.587C719.249 667.304 716.932 674.136 714.501 680.853C713.574 683.285 712.648 685.833 711.721 688.265C709.173 694.866 706.742 701.467 704.194 708.068C703.152 710.731 702.341 713.51 701.414 716.174C699.098 722.775 696.782 729.492 694.35 736.093C691.918 742.694 689.371 749.295 686.823 755.896C685.896 758.443 684.97 761.107 684.043 763.655C681.727 770.256 679.411 776.972 677.095 783.573C676.284 785.89 675.242 788.206 674.431 790.638C672 797.239 669.452 803.84 667.02 810.441C664.588 817.157 662.272 823.99 659.84 830.707C659.261 832.444 658.45 834.065 657.871 835.686C655.092 843.214 652.197 850.625 649.533 858.153C646.29 867.186 643.164 876.219 639.921 885.136C636.563 894.516 633.088 903.781 629.73 913.045C627.298 919.762 624.982 926.595 622.55 933.311C619.308 942.228 615.833 951.146 612.591 960.178C610.043 967.127 607.727 974.191 605.179 981.139C604.137 984.035 603.095 986.93 601.821 989.825C600.663 992.488 598.81 994.11 595.683 993.994C594.641 993.994 593.483 993.994 592.44 993.994C557.119 993.994 521.798 993.994 486.593 993.994C479.182 993.994 478.718 993.531 476.286 986.698C473.854 979.981 471.191 973.265 468.643 966.548C466.211 959.947 464.011 953.23 461.695 946.629C460.305 942.692 458.684 938.87 457.178 934.933C456.136 932.269 455.325 929.49 454.399 926.826C452.199 920.573 449.998 914.203 447.682 907.95C446.408 904.475 445.019 901.001 443.745 897.527C441.081 890.115 438.533 882.704 435.87 875.292C434.943 872.744 433.901 870.197 432.975 867.533C428.574 855.837 424.173 844.024 419.889 832.328C416.53 823.295 413.519 814.031 410.161 804.998C407.729 798.397 405.181 791.796 402.633 785.31C401.591 782.531 400.665 779.636 399.738 776.857C395.917 766.434 392.095 756.011 388.273 745.589C385.841 738.872 383.641 732.039 381.209 725.323C377.967 716.521 374.492 707.72 371.366 698.803C368.934 692.086 366.617 685.254 364.186 678.537C363.491 676.684 362.796 674.947 362.101 673.21C359.322 665.914 356.542 658.734 353.879 651.438C352.721 648.427 351.794 645.3 350.868 642.289C350.636 641.479 350.868 640.552 350.868 639.626C351.099 639.51 351.447 639.394 351.678 639.163L351.91 639.047Z" fill="black"/>
<path d="M581.803 732.498C581.455 730.646 581.108 729.835 581.108 728.908C581.108 727.519 581.108 726.013 581.108 724.624C581.108 611.712 581.108 498.801 581.108 385.889C581.108 384.384 581.108 382.762 581.108 381.257C581.34 378.478 582.382 377.204 585.161 376.393C590.836 374.656 596.51 372.803 602.301 371.182C606.585 369.908 610.87 368.866 615.039 367.592C623.262 365.16 631.484 362.496 639.706 359.949C642.949 359.022 646.191 358.096 649.318 357.169C654.645 355.664 659.856 354.158 665.184 352.653C665.994 352.421 666.805 352.305 667.616 352.189C668.889 352.074 669.7 352.653 669.816 354.042C669.932 355.548 669.932 357.169 669.932 358.675C669.932 430.591 669.932 502.506 669.932 574.307C669.932 598.858 669.932 623.409 669.932 647.844C669.932 651.897 668.774 654.908 665.763 657.572C656.382 665.794 647.234 674.132 637.969 682.47C632.874 686.986 627.894 691.619 622.798 696.135C616.197 702.041 609.596 707.947 603.111 713.854C597.437 718.949 591.762 724.16 586.088 729.256C584.93 730.298 583.656 730.993 581.803 732.383V732.498ZM632.758 516.056C632.758 516.056 632.758 516.056 632.642 516.056C632.41 500.075 632.179 483.977 632.063 467.996C631.947 449.351 631.947 430.706 631.831 412.061C631.831 410.556 631.831 408.935 631.715 407.429C631.368 404.65 629.515 403.492 626.852 404.65C625.694 405.113 624.535 405.924 623.377 406.503C618.745 408.819 616.429 411.946 616.545 417.736C617.124 447.962 617.124 478.187 617.355 508.528C617.587 530.763 617.819 552.998 618.05 575.233C618.282 603.142 618.629 630.936 618.861 658.845C618.861 659.888 618.861 661.046 619.093 662.088C619.672 664.867 621.524 665.562 623.841 663.825C625.809 662.32 627.662 660.467 629.631 658.961C632.063 656.992 633.221 654.561 633.221 651.55C633.221 650.392 633.221 649.118 633.221 647.96C633.105 638.695 632.758 629.315 632.758 620.05C632.758 585.54 632.758 550.914 632.758 516.403V516.056Z" fill="#E62129"/>
<path d="M495.759 732.856C494.137 731.466 492.979 730.656 491.937 729.498C487.073 724.171 482.325 718.844 477.577 713.516C470.976 706.105 464.259 698.809 457.542 691.513C450.594 683.87 443.761 676.227 436.813 668.699C433.223 664.762 429.517 660.709 425.811 656.887C423.611 654.571 422.453 652.023 422.8 648.781C422.8 648.202 422.8 647.623 422.8 647.043C422.8 552.082 422.8 457.121 422.8 362.159C422.8 360.538 422.8 358.801 422.916 357.179C423.032 355.558 423.843 354.748 425.58 355.327C427.085 355.79 428.591 356.021 430.096 356.485C437.855 358.917 445.614 361.349 453.373 363.665C458.006 365.054 462.638 366.212 467.154 367.602C475.84 370.266 484.525 372.929 493.211 375.709C495.759 376.519 496.222 377.098 496.222 379.878C496.222 393.311 496.222 406.629 496.222 420.062C496.222 423.305 495.18 423.768 492.169 422.379C484.525 418.557 476.766 414.735 469.123 410.914C465.765 409.292 464.143 410.219 463.796 413.925C463.796 415.083 463.796 416.357 463.796 417.515C463.796 493.831 463.796 570.148 463.796 646.464C463.796 651.444 465.302 655.034 468.66 658.508C477.23 667.541 485.568 676.806 494.022 685.839C495.527 687.46 496.453 689.313 496.453 691.629C496.453 704.252 496.453 716.991 496.453 729.614C496.453 730.54 496.222 731.351 495.874 733.088L495.759 732.856Z" fill="#E62129"/>
<path d="M691.24 642.057C690.776 640.089 690.429 638.93 690.313 637.772C690.197 636.383 690.313 634.877 690.313 633.488C690.313 540.032 690.313 446.576 690.313 353.12C690.313 351.383 690.313 349.53 690.545 347.793C690.545 345.94 691.587 344.666 693.44 344.087C698.072 342.581 702.704 340.96 707.453 339.57C712.085 338.181 716.833 336.907 721.581 335.401C729.803 332.854 738.025 330.306 746.248 327.874C754.586 325.326 762.924 323.01 771.378 320.578C774.041 319.767 774.736 320.347 774.968 323.242C774.968 323.937 774.968 324.631 774.968 325.442C775.199 343.971 775.315 362.5 775.547 381.029C775.547 381.956 775.547 382.998 775.547 383.924C775.547 386.125 774.505 387.746 772.536 388.904C767.44 391.799 762.345 394.694 757.249 397.59C755.396 398.632 753.428 399.558 751.575 400.6C748.448 402.338 748.217 405.233 751.112 407.433C755.86 411.023 760.608 414.613 765.356 418.203C767.788 420.056 767.904 420.403 766.861 423.414C763.85 431.405 760.724 439.396 757.597 447.386C756.67 449.818 755.628 450.05 753.544 448.66C751.343 447.271 749.259 445.649 747.174 444.028C743.7 441.48 740.342 438.817 736.752 436.385C733.856 434.416 732.004 435.342 731.772 438.932C731.656 440.67 731.772 442.522 731.772 444.26C731.772 493.709 731.772 543.043 731.772 592.492C731.772 596.777 730.498 599.904 727.603 603.03C717.759 613.569 708.032 624.339 698.304 634.993C697.03 636.383 695.872 637.888 694.598 639.278C693.903 639.973 692.977 640.552 691.355 641.71L691.24 642.057ZM749.375 365.511C749.259 362.153 749.027 356.826 748.796 351.499C748.796 350.456 748.564 349.298 748.217 348.372C747.406 346.171 745.553 345.592 743.584 346.635C740.921 348.14 738.257 349.877 735.478 351.151C732.698 352.425 731.656 354.509 731.656 357.405C731.656 363.89 731.656 370.259 731.656 376.744C731.656 377.439 731.656 378.134 731.888 378.829C732.235 380.45 733.393 381.261 735.015 381.029C736.057 380.798 737.099 380.45 738.026 379.871C739.994 378.829 741.847 377.323 743.932 376.513C748.101 374.891 749.722 371.88 749.375 365.511Z" fill="#E62129"/>
<path d="M400.593 638.704C399.203 637.777 398.508 637.43 398.045 636.967C390.634 628.86 383.338 620.638 375.926 612.531C373.957 610.331 371.873 608.131 369.788 605.93C367.125 603.035 364.461 600.14 361.682 597.245C360.408 595.855 359.597 594.35 359.713 592.381C359.713 591.455 359.713 590.412 359.713 589.486C359.713 506.916 359.713 424.462 359.713 341.891C359.713 340.733 359.713 339.459 359.713 338.301C359.945 336.101 360.755 335.406 363.072 335.754C363.419 335.754 363.766 335.754 364.114 335.985C375 339.459 386.001 342.818 396.887 346.408C400.477 347.566 400.593 347.913 400.593 351.503C400.593 352.314 400.593 353.125 400.593 354.051C400.593 446.465 400.593 538.994 400.593 631.408C400.593 633.492 400.477 635.577 400.361 638.588L400.593 638.704Z" fill="#E62129"/>
<path d="M538.848 239.633C580.997 239.633 615.165 205.465 615.165 163.317C615.165 121.168 580.997 87 538.848 87C496.7 87 462.532 121.168 462.532 163.317C462.532 205.465 496.7 239.633 538.848 239.633Z" fill="#70BD4C"/>
</svg>
